<mxfile host="app.diagrams.net" modified="2023-08-15T09:29:43.617Z" agent="Mozilla/5.0 (Windows NT 10.0; Win64; x64) AppleWebKit/537.36 (KHTML, like Gecko) Chrome/115.0.0.0 Safari/537.36" etag="nsr4jq4297V-XLiuJ7DI" version="21.6.8" type="github">
  <diagram name="第 1 页" id="VUDrchiw-BEI4g0h6_Im">
    <mxGraphModel dx="956" dy="555" grid="1" gridSize="10" guides="1" tooltips="1" connect="1" arrows="1" fold="1" page="1" pageScale="1" pageWidth="827" pageHeight="1169" math="0" shadow="0">
      <root>
        <mxCell id="0" />
        <mxCell id="1" parent="0" />
        <mxCell id="8uI2Cr0s3AGfYA3FECyh-1" value="启动过程组" style="shape=step;perimeter=stepPerimeter;whiteSpace=wrap;html=1;fixedSize=1;fillColor=#008a00;strokeColor=#005700;fontColor=#ffffff;" vertex="1" parent="1">
          <mxGeometry x="140" y="10" width="130" height="30" as="geometry" />
        </mxCell>
        <mxCell id="8uI2Cr0s3AGfYA3FECyh-2" value="规划过程组" style="shape=step;perimeter=stepPerimeter;whiteSpace=wrap;html=1;fixedSize=1;fillColor=#1ba1e2;strokeColor=#006EAF;fontColor=#ffffff;" vertex="1" parent="1">
          <mxGeometry x="270" y="10" width="130" height="30" as="geometry" />
        </mxCell>
        <mxCell id="8uI2Cr0s3AGfYA3FECyh-3" value="执行过程组" style="shape=step;perimeter=stepPerimeter;whiteSpace=wrap;html=1;fixedSize=1;fillColor=#0050ef;strokeColor=#001DBC;fontColor=#ffffff;" vertex="1" parent="1">
          <mxGeometry x="400" y="10" width="130" height="30" as="geometry" />
        </mxCell>
        <mxCell id="8uI2Cr0s3AGfYA3FECyh-4" value="控制过程组" style="shape=step;perimeter=stepPerimeter;whiteSpace=wrap;html=1;fixedSize=1;fillColor=#d80073;strokeColor=#A50040;fontColor=#ffffff;" vertex="1" parent="1">
          <mxGeometry x="530" y="10" width="130" height="30" as="geometry" />
        </mxCell>
        <mxCell id="8uI2Cr0s3AGfYA3FECyh-5" value="收尾过程组" style="shape=step;perimeter=stepPerimeter;whiteSpace=wrap;html=1;fixedSize=1;fillColor=#a20025;strokeColor=#6F0000;fontColor=#ffffff;" vertex="1" parent="1">
          <mxGeometry x="660" y="10" width="130" height="30" as="geometry" />
        </mxCell>
        <mxCell id="8uI2Cr0s3AGfYA3FECyh-6" value="" style="shape=step;perimeter=stepPerimeter;whiteSpace=wrap;html=1;fixedSize=1;fillColor=#fa6800;fontColor=#000000;strokeColor=#C73500;size=30;" vertex="1" parent="1">
          <mxGeometry y="60" width="840" height="70" as="geometry" />
        </mxCell>
        <mxCell id="8uI2Cr0s3AGfYA3FECyh-7" value="指定项目章程" style="rounded=0;whiteSpace=wrap;html=1;fillColor=#fad7ac;strokeColor=#b46504;" vertex="1" parent="1">
          <mxGeometry x="150" y="70" width="110" height="20" as="geometry" />
        </mxCell>
        <mxCell id="8uI2Cr0s3AGfYA3FECyh-8" value="规划项目管理计划" style="rounded=0;whiteSpace=wrap;html=1;fillColor=#fad7ac;strokeColor=#b46504;" vertex="1" parent="1">
          <mxGeometry x="280" y="70" width="110" height="20" as="geometry" />
        </mxCell>
        <mxCell id="8uI2Cr0s3AGfYA3FECyh-9" value="指导项目管理工作" style="rounded=0;whiteSpace=wrap;html=1;fillColor=#fad7ac;strokeColor=#b46504;" vertex="1" parent="1">
          <mxGeometry x="410" y="70" width="110" height="20" as="geometry" />
        </mxCell>
        <mxCell id="8uI2Cr0s3AGfYA3FECyh-10" value="监控项目工作" style="rounded=0;whiteSpace=wrap;html=1;fillColor=#fad7ac;strokeColor=#b46504;" vertex="1" parent="1">
          <mxGeometry x="540" y="70" width="110" height="20" as="geometry" />
        </mxCell>
        <mxCell id="8uI2Cr0s3AGfYA3FECyh-11" value="实施整体变更控制" style="rounded=0;whiteSpace=wrap;html=1;fillColor=#fad7ac;strokeColor=#b46504;" vertex="1" parent="1">
          <mxGeometry x="540" y="100" width="110" height="20" as="geometry" />
        </mxCell>
        <mxCell id="8uI2Cr0s3AGfYA3FECyh-13" value="结束项目或阶段" style="rounded=0;whiteSpace=wrap;html=1;fillColor=#fad7ac;strokeColor=#b46504;" vertex="1" parent="1">
          <mxGeometry x="670" y="70" width="110" height="20" as="geometry" />
        </mxCell>
        <mxCell id="8uI2Cr0s3AGfYA3FECyh-14" value="&lt;font color=&quot;#ffffff&quot;&gt;项目整合管理&lt;/font&gt;" style="text;html=1;strokeColor=none;fillColor=none;align=center;verticalAlign=middle;whiteSpace=wrap;rounded=0;" vertex="1" parent="1">
          <mxGeometry x="40" y="80" width="80" height="30" as="geometry" />
        </mxCell>
        <mxCell id="8uI2Cr0s3AGfYA3FECyh-15" value="" style="shape=step;perimeter=stepPerimeter;whiteSpace=wrap;html=1;fixedSize=1;fillColor=#f0a30a;fontColor=#000000;strokeColor=#BD7000;size=30;" vertex="1" parent="1">
          <mxGeometry y="130" width="840" height="100" as="geometry" />
        </mxCell>
        <mxCell id="8uI2Cr0s3AGfYA3FECyh-16" value="" style="shape=step;perimeter=stepPerimeter;whiteSpace=wrap;html=1;fixedSize=1;fillColor=#647687;fontColor=#ffffff;strokeColor=#314354;size=30;" vertex="1" parent="1">
          <mxGeometry y="230" width="840" height="70" as="geometry" />
        </mxCell>
        <mxCell id="8uI2Cr0s3AGfYA3FECyh-17" value="&lt;font color=&quot;#ffffff&quot;&gt;项目范围管理&lt;/font&gt;" style="text;html=1;strokeColor=none;fillColor=none;align=center;verticalAlign=middle;whiteSpace=wrap;rounded=0;" vertex="1" parent="1">
          <mxGeometry x="40" y="165" width="80" height="30" as="geometry" />
        </mxCell>
      </root>
    </mxGraphModel>
  </diagram>
</mxfile>
